<svg id="Capa_1" enable-background="new 0 0 512 512" height="512" viewBox="0 0 512 512" width="512" xmlns="http://www.w3.org/2000/svg"><g><g><path d="m263.074 468.606h-126.881l-62.608 42.056c-5.869 3.942-13.525-1.43-11.753-8.248l8.79-33.808h-22.91c-17.238 0-31.212-13.891-31.212-31.027v-125.094c0-17.136 13.974-31.027 31.212-31.027h215.362c17.238 0 31.212 13.891 31.212 31.027v125.095c0 17.135-13.974 31.026-31.212 31.026z" fill="#8795de"/></g><g><path d="m248.926 321.345h126.881l62.608 42.056c5.869 3.943 13.525-1.43 11.753-8.248l-8.79-33.808h22.911c17.238 0 31.212-13.891 31.212-31.027v-125.094c0-17.136-13.974-31.027-31.212-31.027h-215.363c-17.238 0-31.212 13.891-31.212 31.027v125.095c0 17.135 13.974 31.026 31.212 31.026z" fill="#0ed2b3"/></g><g><path d="m263.074 187.148h-126.881l-62.608 42.056c-5.869 3.942-13.525-1.43-11.753-8.248l8.79-33.808h-22.91c-17.238 0-31.212-13.891-31.212-31.027v-125.094c0-17.136 13.974-31.027 31.212-31.027h215.362c17.238 0 31.212 13.891 31.212 31.027v125.095c0 17.135-13.974 31.026-31.212 31.026z" fill="#8795de"/></g><g><path d="m263.074 0h-1.42c-14.457 86.716-88.039 152.718-176.651 152.718-24.264 0-47.397-4.959-68.504-13.927v17.331c0 17.136 13.974 31.027 31.212 31.027h22.911l-8.79 33.808c-1.772 6.817 5.883 12.19 11.752 8.248l62.608-42.056h126.881c17.238 0 31.212-13.891 31.212-31.027v-125.095c.001-17.136-13.973-31.027-31.211-31.027z" fill="#6c7fd8"/></g><g><g><path d="m241.951 67.785h-177.319c-4.267 0-7.726-3.459-7.726-7.726 0-4.268 3.459-7.726 7.726-7.726h177.319c4.267 0 7.726 3.459 7.726 7.726 0 4.268-3.459 7.726-7.726 7.726z" fill="#fff"/></g></g><g><g><path d="m177.079 110.538h-112.447c-4.267 0-7.726-3.459-7.726-7.726 0-4.268 3.459-7.726 7.726-7.726h112.446c4.267 0 7.726 3.459 7.726 7.726s-3.459 7.726-7.725 7.726z" fill="#fff"/></g></g><g><g><path d="m382.562 234.047h-112.445c-4.267 0-7.726-3.459-7.726-7.726s3.459-7.726 7.726-7.726h112.446c4.267 0 7.726 3.459 7.726 7.726s-3.46 7.726-7.727 7.726z" fill="#fff"/></g></g><g><path d="m267.762 281.807c-14.638 86.493-88.12 152.264-176.577 152.264-26.656 0-51.947-5.981-74.684-16.692v20.201c0 17.135 13.974 31.027 31.212 31.027h22.911l-8.79 33.808c-1.772 6.817 5.883 12.19 11.752 8.248l62.608-42.056h126.881c17.238 0 31.212-13.891 31.212-31.027v-125.095c-.001-15.552-11.512-28.43-26.525-30.678z" fill="#6c7fd8"/></g><g><path d="m464.288 134.197h-5.001c-16.928 83.542-89.056 146.315-175.474 146.315-23.345 0-45.645-4.585-66.098-12.918v22.724c0 17.136 13.974 31.027 31.212 31.027h126.881l62.607 42.056c5.869 3.942 13.525-1.43 11.753-8.248l-8.79-33.808h22.911c17.238 0 31.212-13.891 31.212-31.027v-125.094c-.001-17.136-13.975-31.027-31.213-31.027z" fill="#0ab69f"/></g><g><g><path d="m341.453 275.613h-71.336c-4.267 0-7.726-3.459-7.726-7.726 0-4.268 3.459-7.726 7.726-7.726h71.336c4.267 0 7.726 3.459 7.726 7.726s-3.459 7.726-7.726 7.726z" fill="#fff"/></g></g><g><g><path d="m234.783 394.372h-177.318c-4.267 0-7.726-3.459-7.726-7.726 0-4.268 3.459-7.726 7.726-7.726h177.319c4.267 0 7.726 3.459 7.726 7.726-.001 4.267-3.46 7.726-7.727 7.726z" fill="#fff"/></g></g><g><g><path d="m169.911 351.618h-112.446c-4.267 0-7.726-3.459-7.726-7.726 0-4.268 3.459-7.726 7.726-7.726h112.446c4.267 0 7.726 3.459 7.726 7.726 0 4.268-3.459 7.726-7.726 7.726z" fill="#fff"/></g></g></g></svg>